<svg xmlns="http://www.w3.org/2000/svg" id="canvas" viewBox="142.818 372.109 86.630 56.146"><path d="M 161.30,375.43 C 160.96 375.92, 160.67 376.63, 160.08 378.03 C 159.49 379.42, 159.14 380.27, 158.34 382.40 C 157.55 384.53, 157.02 385.94, 156.11 388.70 C 155.19 391.45, 154.74 393.14, 153.75 396.19 C 152.76 399.24, 152.18 400.88, 151.15 403.95 C 150.12 407.03, 149.52 408.67, 148.62 411.57 C 147.72 414.47, 147.20 416.12, 146.65 418.44 C 146.09 420.77, 145.91 421.85, 145.84 423.20 C 145.77 424.55, 145.85 424.98, 146.28 425.19 C 146.72 425.40, 147.15 425.11, 148.01 424.23 C 148.86 423.36, 149.43 422.49, 150.56 420.82 C 151.69 419.15, 152.41 417.89, 153.66 415.87 C 154.91 413.86, 155.62 412.67, 156.81 410.73 C 158.00 408.79, 158.55 407.84, 159.59 406.18 C 160.64 404.51, 161.26 403.71, 162.04 402.41 C 162.81 401.11, 163.15 400.49, 163.47 399.68 C 163.79 398.87, 163.71 398.56, 163.61 398.34 C 163.52 398.12, 163.31 398.24, 162.99 398.59 C 162.68 398.94, 162.35 399.35, 162.06 400.09 C 161.76 400.84, 161.54 401.40, 161.53 402.31 C 161.51 403.22, 161.62 403.83, 161.99 404.64 C 162.37 405.44, 162.55 405.87, 163.40 406.34 C 164.24 406.81, 164.84 407.00, 166.22 407.00 C 167.59 407.01, 168.50 406.86, 170.27 406.36 C 172.05 405.86, 173.10 405.46, 175.10 404.52 C 177.11 403.58, 178.45 402.81, 180.31 401.66 C 182.17 400.51, 183.18 399.72, 184.39 398.77 C 185.61 397.81, 186.03 397.31, 186.38 396.87 C 186.73 396.43, 186.67 396.36, 186.16 396.57 C 185.64 396.78, 185.14 397.15, 183.82 397.92 C 182.49 398.68, 181.42 399.33, 179.55 400.37 C 177.68 401.42, 176.39 402.23, 174.46 403.15 C 172.52 404.07, 171.52 404.46, 169.87 404.97 C 168.21 405.49, 167.37 405.62, 166.18 405.71 C 164.98 405.80, 164.50 405.72, 163.87 405.43 C 163.25 405.13, 163.21 404.84, 163.06 404.24 C 162.90 403.64, 163.01 403.16, 163.11 402.42 C 163.21 401.68, 163.43 401.23, 163.55 400.52 C 163.68 399.81, 163.76 399.30, 163.73 398.85 C 163.70 398.40, 163.61 398.17, 163.40 398.25 C 163.19 398.34, 163.13 398.55, 162.66 399.26 C 162.19 399.97, 161.87 400.54, 161.05 401.79 C 160.23 403.04, 159.63 403.87, 158.55 405.51 C 157.47 407.15, 156.91 408.10, 155.66 410.00 C 154.41 411.90, 153.60 413.03, 152.31 415.02 C 151.02 417.01, 150.23 418.25, 149.21 419.97 C 148.19 421.69, 147.78 422.63, 147.21 423.63 C 146.65 424.63, 146.49 425.04, 146.39 424.98 C 146.29 424.92, 146.41 424.57, 146.70 423.33 C 146.99 422.08, 147.23 421.03, 147.85 418.75 C 148.46 416.47, 148.90 414.81, 149.78 411.93 C 150.66 409.04, 151.21 407.39, 152.24 404.32 C 153.27 401.25, 153.88 399.61, 154.92 396.58 C 155.97 393.55, 156.52 391.90, 157.47 389.16 C 158.42 386.42, 158.95 385.03, 159.68 382.88 C 160.41 380.72, 160.70 379.85, 161.12 378.40 C 161.54 376.94, 161.75 376.19, 161.79 375.60 C 161.82 375.01, 161.64 374.95, 161.30 375.43" style="stroke: currentColor; fill: currentColor;"/><path d="M 196.29,382.10 C 196.41 381.86, 196.50 381.50, 196.33 381.05 C 196.17 380.60, 195.93 380.24, 195.46 379.86 C 195.00 379.48, 194.72 379.27, 194.00 379.16 C 193.28 379.05, 192.79 379.02, 191.85 379.32 C 190.90 379.62, 190.38 379.95, 189.27 380.65 C 188.16 381.35, 187.54 381.77, 186.30 382.83 C 185.05 383.89, 184.32 384.50, 183.03 385.95 C 181.75 387.40, 181.07 388.26, 179.86 390.10 C 178.66 391.93, 178.04 393.01, 176.99 395.11 C 175.95 397.22, 175.44 398.41, 174.63 400.63 C 173.82 402.85, 173.47 404.06, 172.94 406.20 C 172.42 408.34, 172.12 409.47, 172.00 411.34 C 171.88 413.21, 171.95 414.13, 172.32 415.55 C 172.70 416.96, 173.01 417.56, 173.88 418.40 C 174.75 419.24, 175.33 419.51, 176.67 419.75 C 178.02 419.98, 178.89 419.95, 180.63 419.57 C 182.36 419.20, 183.37 418.80, 185.34 417.87 C 187.32 416.94, 188.40 416.22, 190.52 414.92 C 192.63 413.63, 193.80 412.82, 195.92 411.41 C 198.04 410.00, 199.21 409.17, 201.11 407.86 C 203.00 406.55, 203.90 405.83, 205.41 404.85 C 206.92 403.87, 207.59 403.53, 208.64 402.97 C 209.69 402.42, 210.11 402.22, 210.68 402.07 C 211.24 401.92, 211.39 401.93, 211.48 402.21 C 211.58 402.49, 211.42 402.82, 211.15 403.46 C 210.88 404.11, 210.50 404.60, 210.12 405.45 C 209.74 406.30, 209.42 406.93, 209.24 407.72 C 209.06 408.50, 209.09 408.91, 209.22 409.38 C 209.35 409.85, 209.40 410.04, 209.90 410.06 C 210.40 410.09, 210.85 409.91, 211.70 409.51 C 212.55 409.10, 212.99 408.76, 214.16 408.04 C 215.33 407.31, 216.14 406.72, 217.55 405.89 C 218.96 405.05, 219.91 404.60, 221.20 403.86 C 222.49 403.11, 223.00 402.70, 223.99 402.15 C 224.99 401.60, 225.77 401.41, 226.17 401.11 C 226.58 400.82, 226.54 400.65, 226.02 400.68 C 225.50 400.70, 224.67 400.83, 223.57 401.22 C 222.48 401.61, 221.92 401.97, 220.55 402.63 C 219.19 403.29, 218.21 403.70, 216.76 404.51 C 215.30 405.32, 214.44 405.90, 213.29 406.67 C 212.13 407.44, 211.70 407.80, 210.99 408.35 C 210.28 408.91, 209.96 409.22, 209.73 409.43 C 209.51 409.65, 209.70 409.66, 209.88 409.42 C 210.05 409.18, 210.27 408.89, 210.62 408.23 C 210.97 407.56, 211.31 406.98, 211.65 406.08 C 211.99 405.18, 212.26 404.57, 212.33 403.74 C 212.40 402.90, 212.36 402.38, 212.01 401.90 C 211.66 401.42, 211.34 401.31, 210.57 401.34 C 209.81 401.37, 209.36 401.56, 208.20 402.06 C 207.05 402.56, 206.35 402.91, 204.79 403.86 C 203.22 404.80, 202.30 405.50, 200.38 406.78 C 198.45 408.06, 197.28 408.87, 195.16 410.26 C 193.04 411.65, 191.87 412.45, 189.78 413.72 C 187.70 414.99, 186.63 415.69, 184.74 416.60 C 182.85 417.52, 181.90 417.88, 180.32 418.30 C 178.74 418.72, 177.98 418.80, 176.82 418.69 C 175.66 418.58, 175.21 418.42, 174.51 417.74 C 173.81 417.07, 173.59 416.57, 173.33 415.30 C 173.06 414.04, 173.02 413.19, 173.19 411.43 C 173.36 409.67, 173.64 408.58, 174.18 406.51 C 174.71 404.44, 175.06 403.24, 175.86 401.09 C 176.67 398.93, 177.17 397.76, 178.20 395.71 C 179.22 393.67, 179.82 392.62, 181.00 390.85 C 182.17 389.08, 182.82 388.25, 184.06 386.86 C 185.30 385.47, 186.01 384.91, 187.20 383.90 C 188.40 382.90, 189.02 382.51, 190.04 381.84 C 191.05 381.17, 191.52 380.86, 192.28 380.56 C 193.05 380.25, 193.37 380.27, 193.85 380.32 C 194.32 380.37, 194.37 380.55, 194.65 380.81 C 194.94 381.07, 195.04 381.33, 195.26 381.62 C 195.48 381.91, 195.56 382.15, 195.77 382.25 C 195.97 382.35, 196.18 382.34, 196.29 382.10" style="stroke: currentColor; fill: currentColor;"/></svg>